<?xml version="1.0" encoding="UTF-8"?>
<!DOCTYPE svg PUBLIC "-//W3C//DTD SVG 1.1//EN" "http://www.w3.org/Graphics/SVG/1.1/DTD/svg11.dtd">
<!-- Creator: CorelDRAW 2019 (64-Bit) -->
<svg xmlns="http://www.w3.org/2000/svg" xml:space="preserve" width="37.0557mm" height="59.4657mm" version="1.1" style="shape-rendering:geometricPrecision; text-rendering:geometricPrecision; image-rendering:optimizeQuality; fill-rule:evenodd; clip-rule:evenodd"
viewBox="0 0 123.64 198.42"
 xmlns:xlink="http://www.w3.org/1999/xlink"
 xmlns:xodm="http://www.corel.com/coreldraw/odm/2003">
 <defs>
  <style type="text/css">
   <![CDATA[
    .fil0 {fill:#EF7F1A;fill-rule:nonzero}
   ]]>
  </style>
 </defs>
 <g id="Слой_x0020_1">
  <metadata id="CorelCorpID_0Corel-Layer"/>
  <g id="_2802547045616">
   <path class="fil0" d="M61.82 154.55c-19.51,-23.07 -49.3,-65.26 -49.3,-92.72 0,-27.19 22.11,-49.31 49.3,-49.31 27.19,0 49.3,22.12 49.3,49.31 0,27.41 -29.8,69.63 -49.31,92.72zm0 -154.55c-34.09,0 -61.82,27.73 -61.82,61.82 0,42.3 55.32,104.41 57.68,107.03 1.11,1.23 2.62,1.85 4.14,1.85 1.52,0 3.03,-0.62 4.14,-1.85 2.36,-2.62 57.68,-64.73 57.68,-107.03 0,-34.09 -27.73,-61.82 -61.82,-61.82z"/>
   <path class="fil0" d="M61.82 75.78c-7.7,0 -13.96,-6.26 -13.96,-13.96 0,-7.7 6.26,-13.96 13.96,-13.96 7.7,0 13.96,6.26 13.96,13.96 0,7.7 -6.26,13.96 -13.96,13.96zm0 -37.38c-12.92,0 -23.42,10.51 -23.42,23.43 0,12.91 10.51,23.42 23.42,23.42 12.92,0 23.42,-10.51 23.42,-23.42 0,-12.92 -10.51,-23.43 -23.42,-23.43z"/>
   <path class="fil0" d="M18.46 198.42l86.71 0c3.84,0 6.96,-3.12 6.96,-6.96 0,-3.84 -3.12,-6.96 -6.96,-6.96l-86.71 0c-3.84,0 -6.96,3.12 -6.96,6.96 0,3.85 3.12,6.96 6.96,6.96z"/>
  </g>
 </g>
</svg>
