<?xml version="1.0" encoding="UTF-8"?>
<!DOCTYPE svg PUBLIC "-//W3C//DTD SVG 1.1//EN" "http://www.w3.org/Graphics/SVG/1.1/DTD/svg11.dtd">
<!-- Creator: CorelDRAW 2019 (64-Bit) -->
<svg xmlns="http://www.w3.org/2000/svg" xml:space="preserve" width="71.1994mm" height="71.2003mm" version="1.1" style="shape-rendering:geometricPrecision; text-rendering:geometricPrecision; image-rendering:optimizeQuality; fill-rule:evenodd; clip-rule:evenodd"
viewBox="0 0 576.1 576.11"
 xmlns:xlink="http://www.w3.org/1999/xlink"
 xmlns:xodm="http://www.corel.com/coreldraw/odm/2003">
 <defs>
  <style type="text/css">
   <![CDATA[
    .fil0 {fill:#EF7F1A;fill-rule:nonzero}
   ]]>
  </style>
 </defs>
 <g id="Слой_x0020_1">
  <metadata id="CorelCorpID_0Corel-Layer"/>
  <g id="_2802551540016">
   <path class="fil0" d="M97.14 286.26l-54.18 -48.32 54.18 -43.73 0 92.05zm348.06 -189.79l0 219.89 -157.15 140.12 -157.15 -140.12 0 -219.89 314.3 0zm-155.31 -57.83l29.41 24.08 -59.23 0 29.82 -24.08zm243.35 199.22l-54.29 48.41 0 -92.86 54.29 44.45zm-120.2 152.39l129.29 -115.28 0 243.71 -129.29 -128.43zm-224.75 22.5l88.52 78.93c3.21,2.86 7.22,4.28 11.24,4.28 4.01,0 8.03,-1.42 11.23,-4.28l88.52 -78.93 130.48 129.61 -460.47 0 130.48 -129.61zm-25.24 -22.5l-129.29 128.43 0 -243.71 129.29 115.28zm406.86 -166l-90.95 -74.46 0 -70.2c0,-9.31 -7.56,-16.88 -16.88,-16.88l-89.48 0 -71.93 -58.87c-3.1,-2.54 -6.87,-3.82 -10.64,-3.83 -3.77,-0.02 -7.55,1.23 -10.66,3.74l-73.04 58.96 -92.31 0c-9.32,0 -16.88,7.56 -16.88,16.88l0 71.24 -90.87 73.34c-3.97,3.2 -6.27,8.04 -6.27,13.15l0 321.92c0,9.31 7.55,16.87 16.87,16.87l542.34 0c9.33,0 16.89,-7.56 16.89,-16.87l0 -321.92c0,-5.06 -2.27,-9.87 -6.19,-13.07z"/>
   <path class="fil0" d="M182.91 163.24l210.28 0c9.32,0 16.88,-7.55 16.88,-16.88 0,-9.32 -7.56,-16.87 -16.88,-16.87l-210.28 0c-9.32,0 -16.88,7.55 -16.88,16.87 0,9.33 7.56,16.88 16.88,16.88z"/>
   <path class="fil0" d="M182.91 218.94l72.18 0c9.32,0 16.88,-7.56 16.88,-16.88 0,-9.32 -7.55,-16.88 -16.88,-16.88l-72.18 0c-9.32,0 -16.88,7.55 -16.88,16.88 0,9.31 7.56,16.88 16.88,16.88z"/>
   <path class="fil0" d="M393.19 185.19l-72.18 0c-9.33,0 -16.88,7.55 -16.88,16.88 0,9.31 7.55,16.88 16.88,16.88l72.18 0c9.32,0 16.88,-7.56 16.88,-16.88 0,-9.32 -7.56,-16.88 -16.88,-16.88z"/>
   <path class="fil0" d="M182.91 275.22l72.18 0c9.32,0 16.88,-7.55 16.88,-16.86 0,-9.33 -7.55,-16.89 -16.88,-16.89l-72.18 0c-9.32,0 -16.88,7.56 -16.88,16.89 0,9.31 7.56,16.86 16.88,16.86z"/>
   <path class="fil0" d="M393.19 241.47l-72.18 0c-9.33,0 -16.88,7.56 -16.88,16.89 0,9.31 7.55,16.86 16.88,16.86l72.18 0c9.32,0 16.88,-7.55 16.88,-16.86 0,-9.33 -7.56,-16.89 -16.88,-16.89z"/>
   <path class="fil0" d="M182.91 331.51l210.28 0c9.32,0 16.88,-7.55 16.88,-16.89 0,-9.3 -7.56,-16.88 -16.88,-16.88l-210.28 0c-9.32,0 -16.88,7.57 -16.88,16.88 0,9.34 7.56,16.89 16.88,16.89z"/>
  </g>
 </g>
</svg>
