<?xml version="1.0" encoding="UTF-8"?>
<!DOCTYPE svg PUBLIC "-//W3C//DTD SVG 1.1//EN" "http://www.w3.org/Graphics/SVG/1.1/DTD/svg11.dtd">
<!-- Creator: CorelDRAW 2019 (64-Bit) -->
<svg xmlns="http://www.w3.org/2000/svg" xml:space="preserve" width="55.1918mm" height="55.4517mm" version="1.1" style="shape-rendering:geometricPrecision; text-rendering:geometricPrecision; image-rendering:optimizeQuality; fill-rule:evenodd; clip-rule:evenodd"
viewBox="0 0 213.24 214.24"
 xmlns:xlink="http://www.w3.org/1999/xlink"
 xmlns:xodm="http://www.corel.com/coreldraw/odm/2003">
 <defs>
  <style type="text/css">
   <![CDATA[
    .fil0 {fill:#EF7F1A}
   ]]>
  </style>
 </defs>
 <g id="Слой_x0020_1">
  <metadata id="CorelCorpID_0Corel-Layer"/>
  <path class="fil0" d="M106.62 0c58.88,0 106.62,47.96 106.62,107.12 0,59.16 -47.74,107.12 -106.62,107.12 -58.88,0 -106.62,-47.96 -106.62,-107.12 0,-59.16 47.74,-107.12 106.62,-107.12zm-22.97 19.09c-25.05,6.79 -45.8,24.12 -57.18,46.93l43.43 0c2.69,-18.51 7.29,-35.12 13.75,-46.93zm39.46 20.33c-5.41,-16.21 -11.87,-23.48 -15.88,-23.48 -4.01,0 -10.47,7.26 -15.88,23.48 -2.61,7.82 -4.69,16.82 -6.21,26.6l44.19 0c-1.53,-9.78 -3.62,-18.78 -6.22,-26.6zm-40.91 66.72c0,8.6 0.38,16.99 1.11,25.04l47.85 0c0.72,-8.05 1.1,-16.44 1.1,-25.04 0,-8.59 -0.38,-16.99 -1.1,-25.03l-47.85 0c-0.73,8.04 -1.11,16.44 -1.11,25.03zm105.8 -40.12c-11.38,-22.81 -32.13,-40.14 -57.18,-46.93 6.46,11.81 11.06,28.42 13.75,46.93l43.43 0zm-120.88 40.12c0,-8.4 0.35,-16.82 1.06,-25.03l-47.59 0c-2.31,7.95 -3.54,16.35 -3.54,25.03 0,8.69 1.24,17.09 3.54,25.04l47.59 0c-0.71,-8.21 -1.06,-16.63 -1.06,-25.04zm24.24 66.73c5.41,16.21 11.87,23.47 15.88,23.47 4.01,0 10.47,-7.26 15.88,-23.47 2.6,-7.82 4.69,-16.82 6.22,-26.6l-44.19 0c1.52,9.78 3.61,18.78 6.21,26.6zm-64.88 -26.6c11.38,22.81 32.13,40.14 57.18,46.93 -6.46,-11.81 -11.06,-28.42 -13.75,-46.93l-43.43 0zm119.82 -65.16c0.71,8.21 1.07,16.63 1.07,25.03 0,8.41 -0.36,16.83 -1.07,25.04l47.59 0c2.31,-7.95 3.54,-16.35 3.54,-25.04 0,-8.68 -1.23,-17.08 -3.54,-25.03l-47.59 0zm-15.48 112.09c25.04,-6.79 45.8,-24.12 57.18,-46.93l-43.43 0c-2.69,18.51 -7.29,35.12 -13.75,46.93z"/>
 </g>
</svg>
