<?xml version="1.0" encoding="UTF-8"?>
<!DOCTYPE svg PUBLIC "-//W3C//DTD SVG 1.1//EN" "http://www.w3.org/Graphics/SVG/1.1/DTD/svg11.dtd">
<!-- Creator: CorelDRAW 2019 (64-Bit) -->
<svg xmlns="http://www.w3.org/2000/svg" xml:space="preserve" width="66.2114mm" height="66.3425mm" version="1.1" style="shape-rendering:geometricPrecision; text-rendering:geometricPrecision; image-rendering:optimizeQuality; fill-rule:evenodd; clip-rule:evenodd"
viewBox="0 0 344.8 345.48"
 xmlns:xlink="http://www.w3.org/1999/xlink"
 xmlns:xodm="http://www.corel.com/coreldraw/odm/2003">
 <defs>
  <style type="text/css">
   <![CDATA[
    .fil0 {fill:#EF7F1A;fill-rule:nonzero}
   ]]>
  </style>
 </defs>
 <g id="Слой_x0020_1">
  <metadata id="CorelCorpID_0Corel-Layer"/>
  <g id="_2802549147856">
   <path class="fil0" d="M189 325.24l-151.78 0c-9.36,0 -16.98,-7.62 -16.98,-16.98l0 -49.5 185.74 0 0 49.5c0,9.36 -7.62,16.98 -16.98,16.98zm-151.78 -304.99l151.78 0c9.36,0 16.98,7.61 16.98,16.98l0 201.28 -185.74 0 0 -201.28c0,-9.36 7.62,-16.98 16.98,-16.98zm151.78 -20.24l-151.78 0c-20.53,0 -37.22,16.7 -37.22,37.22l0 271.03c0,20.53 16.7,37.23 37.22,37.23l151.78 0c20.53,0 37.22,-16.7 37.22,-37.23l0 -271.03c0,-20.52 -16.7,-37.22 -37.22,-37.22z"/>
   <path class="fil0" d="M263.15 142.18c-3.95,3.95 -3.95,10.36 0,14.31 4.34,4.35 6.73,10.11 6.73,16.25 0,6.13 -2.39,11.9 -6.73,16.24 -3.95,3.95 -3.95,10.36 0,14.31 1.97,1.98 4.57,2.97 7.16,2.97 2.59,0 5.19,-0.98 7.16,-2.97 8.16,-8.16 12.66,-19.02 12.66,-30.56 0,-11.55 -4.49,-22.4 -12.66,-30.56 -3.95,-3.96 -10.36,-3.96 -14.31,0z"/>
   <path class="fil0" d="M313.43 95.38c-3.96,-3.95 -10.36,-3.96 -14.31,0 -3.95,3.95 -3.95,10.36 0,14.31 34.76,34.77 34.76,91.35 0,126.12 -3.95,3.95 -3.95,10.36 0,14.31 1.97,1.98 4.56,2.97 7.16,2.97 2.59,0 5.18,-0.99 7.16,-2.97 18.37,-18.37 28.82,-41.71 31.37,-65.73l0 -23.26c-2.54,-24.02 -13,-47.36 -31.37,-65.73z"/>
   <path class="fil0" d="M113.11 298.13c-3.39,0 -6.14,-2.76 -6.14,-6.14 0,-3.39 2.76,-6.14 6.14,-6.14 3.39,0 6.14,2.75 6.14,6.14 0,3.38 -2.75,6.14 -6.14,6.14zm0 -32.52c-14.55,0 -26.38,11.83 -26.38,26.39 0,14.55 11.83,26.38 26.38,26.38 14.54,0 26.38,-11.83 26.38,-26.38 0,-14.55 -11.84,-26.39 -26.38,-26.39z"/>
  </g>
 </g>
</svg>
